Coordinates
version=1
nRows=12
nColumns=24
inDegrees=yes

Units are S.I. units (second, meters, Newtons, ...)
Angles are in degrees.

endheader
time	pelvis_tilt	pelvis_list	pelvis_rotation	pelvis_tx	pelvis_ty	pelvis_tz	hip_flexion_r	hip_adduction_r	hip_rotation_r	knee_angle_r	ankle_angle_r	subtalar_angle_r	mtp_angle_r	hip_flexion_l	hip_adduction_l	hip_rotation_l	knee_angle_l	ankle_angle_l	subtalar_angle_l	mtp_angle_l	lumbar_extension	lumbar_bending	lumbar_rotation
      4.69000000	    -12.75300517	      1.62548250	      2.64618205	      0.17520999	     -0.00808674	     -0.02626287	     37.19559003	     -6.18930111	     -7.72003398	    -40.66120761	     -5.79223763	      8.04539935	     34.34175133	      3.20415928	      6.47916286	      1.43505035	     -3.77821880	      0.28177274	      5.32548029	      8.80672342	     11.45866811	     -3.05108102	     -5.97294079
      4.69500000	    -12.71652701	      1.53060748	      2.81051515	      0.17986758	     -0.00845335	     -0.02639894	     37.24174465	     -6.11573352	     -8.05311269	    -39.46574277	     -5.65156471	      7.97896794	     33.49965881	      2.89876711	      6.36151059	      1.54324411	     -3.81597131	      0.44911710	      5.51670078	      9.00021047	     11.37758806	     -2.96582767	     -6.16657667
      4.70000000	    -12.80901820	      1.44361107	      2.91554748	      0.18454204	     -0.00895526	     -0.02653367	     37.43194410	     -6.02818277	     -8.35612804	    -38.23037258	     -5.67835785	      7.85711231	     33.08660743	      2.73397485	      6.26150080	      1.63598065	     -3.85718109	      0.58681830	      5.58871014	      9.10421749	     11.44733332	     -2.86095779	     -6.25731797
      4.70500000	    -12.88402127	      1.35875245	      3.01589988	      0.18918966	     -0.00947835	     -0.02669235	     37.58275012	     -5.94043417	     -8.63470769	    -36.96342291	     -5.67862960	      7.85476448	     32.75591740	      2.56689882	      6.16608129	      1.70703488	     -3.92962679	      0.75583331	      5.65760358	      9.22186640	     11.48504200	     -2.74838501	     -6.33241145
      4.71000000	    -12.83267363	      1.27161240	      3.13695366	      0.19386534	     -0.00983178	     -0.02675694	     37.56229615	     -5.84552901	     -8.93871320	    -35.68437760	     -5.61463930	      7.96681340	     31.96436504	      2.25118776	      6.04197057	      1.73710259	     -3.97224628	      0.89872264	      5.92377732	      9.46364170	     11.38704998	     -2.65460257	     -6.48415992
      4.71500000	    -12.94300562	      1.20091300	      3.25048781	      0.19855761	     -0.01040270	     -0.02683481	     37.71630858	     -5.76532660	     -9.22829140	    -34.38359876	     -5.63067174	      7.95899013	     31.61417558	      2.12231098	      5.95082910	      1.83441104	     -4.04633139	      1.04429759	      6.03189047	      9.59287742	     11.46910064	     -2.57622412	     -6.58529334
      4.72000000	    -13.02486265	      1.12237702	      3.34654514	      0.20323839	     -0.01092789	     -0.02692181	     37.82420675	     -5.67432209	     -9.53641495	    -33.05590932	     -5.70252185	      8.05535181	     31.30195055	      1.96664995	      5.84861841	      1.88919145	     -4.12338255	      1.18632403	      6.17068072	      9.72698842	     11.51544395	     -2.47833383	     -6.65212677
      4.72500000	    -13.05749411	      1.04077585	      3.46526872	      0.20789238	     -0.01140159	     -0.02696470	     37.85095394	     -5.56835502	     -9.79067240	    -31.70021450	     -5.72883161	      8.19681030	     30.88663592	      1.77372586	      5.73116312	      1.92373535	     -4.22460718	      1.34760516	      6.41758417	      9.92882740	     11.49641243	     -2.39028125	     -6.78889984
      4.73000000	    -13.16877411	      0.97134242	      3.52109195	      0.21261966	     -0.01198371	     -0.02700835	     37.96648995	     -5.44749421	    -10.02100125	    -30.34057111	     -5.81499105	      8.37236540	     30.62485585	      1.64912861	      5.63552866	      1.94482746	     -4.30419720	      1.48100370	      6.54635060	     10.05361082	     11.57850913	     -2.28523357	     -6.80424059
      4.73500000	    -13.23903966	      0.88688849	      3.63656192	      0.21729668	     -0.01248569	     -0.02705519	     38.01220186	     -5.33054726	    -10.25689820	    -28.96215415	     -5.92013486	      8.54058683	     30.29051609	      1.50132327	      5.51335095	      1.97666297	     -4.41111466	      1.62750653	      6.80796611	     10.23680378	     11.60025342	     -2.19178546	     -6.90549813
      4.74000000	    -13.32315128	      0.80925048	      3.71711453	      0.22199659	     -0.01302566	     -0.02704943	     38.06722024	     -5.18882993	    -10.42771990	    -27.57711871	     -6.01730022	      8.74061677	     29.97161869	      1.36847618	      5.39573542	      1.97792773	     -4.52098358	      1.77181492	      7.05641695	     10.41309579	     11.64126520	     -2.09434427	     -6.96932492
      4.74500000	    -13.41432027	      0.73214074	      3.80060545	      0.22670795	     -0.01357627	     -0.02704244	     38.11975967	     -5.03946022	    -10.55193058	    -26.18904114	     -6.11533584	      8.93332464	     29.64938572	      1.25010177	      5.27734827	      1.97287321	     -4.64378944	      1.91466046	      7.32278628	     10.59312080	     11.68654818	     -1.99803510	     -7.03528434
